<svg xmlns="http://www.w3.org/2000/svg" xmlns:xlink="http://www.w3.org/1999/xlink" fill="none" version="1.1" width="4.87738037109375" height="8.5" viewBox="0 0 4.87738037109375 8.5"><g><g transform="matrix(-1,0,0,1,9.254716873168945,0)"><path d="M8.627358436584473,8.25C8.533018436584474,8.25,8.438678436584473,8.21226,8.363208436584472,8.136790000000001L4.740566436584473,4.53302C4.665094236584473,4.45755,4.627358436584473,4.36321,4.627358436584473,4.26887C4.627358436584473,4.17453,4.665094236584473,4.08019,4.740566436584473,4.00472L8.363208436584472,0.363208C8.514148436584472,0.21226420000000001,8.740568436584471,0.21226420000000001,8.891508436584473,0.363208C9.042448436584472,0.514151,9.042448436584472,0.7405660000000001,8.891508436584473,0.891509L5.533018436584473,4.26887L8.891508436584473,7.62736C9.042448436584472,7.7783,9.042448436584472,8.004719999999999,8.891508436584473,8.155660000000001C8.816038436584472,8.21226,8.721698436584472,8.25,8.627358436584473,8.25Z" fill="#262424" fill-opacity="1"/><path d="M8.627358436584473,8.5Q8.849058436584473,8.5,9.041508436584472,8.35566L9.055718436584472,8.345L9.068288436584472,8.33244Q9.254718436584472,8.14601,9.254718436584472,7.89151Q9.254718436584472,7.63701,9.068288436584472,7.45058L5.886078436584473,4.26837L9.068288436584472,1.068286Q9.254718436584472,0.881856,9.254718436584472,0.6273580000000001Q9.254718436584472,0.372861,9.068288436584472,0.1864305Q8.881858436584473,0,8.627358436584473,0Q8.372858436584472,0,8.185968436584472,0.18689060000000002L4.563788936584473,3.82794Q4.377358436584473,4.0143699999999995,4.377358436584473,4.26887Q4.377358436584473,4.52337,4.564251436584473,4.71026L8.186428436584473,8.31357Q8.372858436584472,8.5,8.627358436584473,8.5ZM8.726398436584471,7.96631Q8.795818436584472,7.88522,8.714728436584473,7.80414L5.179959436584473,4.26936L8.714728436584473,0.7147330000000001Q8.802108436584472,0.6273580000000001,8.714728436584473,0.5399849999999999Q8.627358436584473,0.45261,8.540438436584473,0.539524L4.917343436584472,4.18149Q4.877358436584473,4.22148,4.877358436584473,4.26887Q4.877358436584473,4.31626,4.9168804365844725,4.35578L8.539988436584473,7.96002Q8.579968436584473,8,8.627358436584473,8Q8.675328436584472,8,8.726398436584471,7.96631Z" fill-rule="evenodd" fill="#262424" fill-opacity="1"/></g></g></svg>