<svg xmlns="http://www.w3.org/2000/svg" xmlns:xlink="http://www.w3.org/1999/xlink" fill="none" version="1.1" width="49.9169921875" height="49.91705322265625" viewBox="0 0 49.9169921875 49.91705322265625"><g><g><path d="M0,24.9586C0,11.1742,11.1742,0,24.9586,0C38.7429,0,49.9171,11.1742,49.917,24.9586C49.917,38.7428,38.7428,49.917,24.9586,49.917C11.1742,49.917,0,38.7428,0,24.9586ZM20.2415,31.2818C18.7367,31.2818,17.6388,31.038,16.2156,30.6312L12.1086,32.7053L13.288,29.2079C10.4008,27.1749,8.69275,24.613,8.69275,21.4818C8.69275,15.9515,13.8978,11.7224,20.2415,11.7224C25.8532,11.7224,30.8549,15.0569,31.8308,19.7742C31.4242,19.6927,31.0581,19.6521,30.7329,19.6521C25.2025,19.6521,20.9329,23.7998,20.9329,28.8015C20.9329,29.6554,21.0549,30.428,21.2582,31.2414C20.9329,31.2818,20.5668,31.2818,20.2415,31.2818ZM14.7112,18.0252C14.7112,17.1306,15.6057,16.602,16.4597,16.602C17.2731,16.602,17.9237,17.1306,17.9237,18.0252C17.9237,18.8794,17.2731,19.4487,16.4597,19.4487C15.6057,19.4487,14.7112,18.8794,14.7112,18.0252ZM25.9753,18.0252C25.9753,18.8793,25.4059,19.4484,24.5113,19.4484C23.6574,19.4484,22.8439,18.8794,22.844,18.0252C22.844,17.1306,23.6573,16.602,24.5113,16.602C25.4059,16.602,25.9753,17.1306,25.9753,18.0252ZM38.0117,38.1949L37.1986,35.2668C39.4757,33.5996,41.2242,31.2818,41.2242,28.6795C41.2242,24.0437,36.5885,20.3027,31.4243,20.3027C25.9753,20.3027,21.6648,24.0437,21.6648,28.6795C21.6648,33.3151,25.9752,37.0562,31.4243,37.0562C32.6035,37.0562,33.7421,36.6902,34.9213,36.4464L38.0117,38.1949ZM27.1139,26.1174C27.1139,25.4668,27.6832,24.9383,28.2523,24.9383C29.1065,24.9383,29.7163,25.4669,29.7163,26.1174C29.7163,26.6459,29.1064,27.1746,28.2523,27.1746C27.6829,27.1746,27.1139,26.646,27.1139,26.1174ZM33.498,26.1174C33.498,25.4668,34.0267,24.9383,34.6367,24.9383C35.4499,24.9383,36.0599,25.4669,36.0599,26.1174C36.0599,26.6459,35.4499,27.1746,34.6367,27.1746C34.0267,27.1746,33.498,26.646,33.498,26.1174Z" fill-rule="evenodd" fill="#00C785" fill-opacity="1"/></g></g></svg>