<svg xmlns="http://www.w3.org/2000/svg" xmlns:xlink="http://www.w3.org/1999/xlink" fill="none" version="1.1" width="49.751220703125" height="49.751220703125" viewBox="0 0 49.751220703125 49.751220703125"><g><g><path d="M49.7512,24.8756Q49.7512,25.4863,49.7213,26.0962Q49.6913,26.7061,49.6315,27.3139Q49.5716,27.9216,49.482,28.5256Q49.3924,29.1297,49.2733,29.7286Q49.1541,30.3275,49.0057,30.9199Q48.8574,31.5123,48.6801,32.0966Q48.5028,32.681,48.2971,33.256Q48.0914,33.8309,47.8577,34.3951Q47.624,34.9593,47.3629,35.5113Q47.1018,36.0634,46.814,36.6019Q46.5261,37.1405,46.2122,37.6642Q45.8982,38.188,45.5589,38.6958Q45.2197,39.2035,44.8559,39.694Q44.4921,40.1845,44.1047,40.6565Q43.7173,41.1286,43.3072,41.5811Q42.8971,42.0335,42.4653,42.4653Q42.0335,42.8971,41.5811,43.3072Q41.1286,43.7173,40.6565,44.1047Q40.1845,44.4921,39.694,44.8559Q39.2035,45.2197,38.6958,45.5589Q38.188,45.8982,37.6642,46.2122Q37.1405,46.5261,36.6019,46.814Q36.0634,47.1018,35.5113,47.3629Q34.9593,47.624,34.3951,47.8577Q33.8309,48.0914,33.256,48.2971Q32.681,48.5028,32.0966,48.6801Q31.5123,48.8574,30.9199,49.0057Q30.3275,49.1541,29.7286,49.2733Q29.1297,49.3924,28.5256,49.482Q27.9216,49.5716,27.3139,49.6315Q26.7061,49.6913,26.0962,49.7213Q25.4863,49.7512,24.8756,49.7512Q24.265,49.7512,23.655,49.7213Q23.0451,49.6913,22.4374,49.6315Q21.8297,49.5716,21.2256,49.482Q20.6216,49.3924,20.0226,49.2733Q19.4237,49.1541,18.8313,49.0057Q18.239,48.8574,17.6546,48.6801Q17.0702,48.5028,16.4953,48.2971Q15.9203,48.0914,15.3561,47.8577Q14.792,47.624,14.2399,47.3629Q13.6879,47.1018,13.1493,46.814Q12.6108,46.5261,12.087,46.2122Q11.5632,45.8982,11.0555,45.5589Q10.5477,45.2197,10.0572,44.8559Q9.56674,44.4921,9.09469,44.1047Q8.62265,43.7173,8.17017,43.3072Q7.7177,42.8971,7.2859,42.4653Q6.8541,42.0335,6.444,41.5811Q6.03391,41.1286,5.64651,40.6565Q5.25911,40.1845,4.89533,39.694Q4.53156,39.2035,4.1923,38.6958Q3.85303,38.188,3.53909,37.6642Q3.22515,37.1405,2.93728,36.6019Q2.64942,36.0634,2.38833,35.5113Q2.12723,34.9593,1.89354,34.3951Q1.65985,33.8309,1.45413,33.256Q1.2484,32.681,1.07114,32.0966Q0.89387,31.5123,0.745491,30.9199Q0.597112,30.3275,0.477978,29.7286Q0.358844,29.1297,0.269241,28.5256Q0.179638,27.9216,0.119783,27.3139Q0.0599275,26.7061,0.0299638,26.0962Q-1.68248e-15,25.4863,-1.68248e-15,24.8756Q-1.68248e-15,24.265,0.0299638,23.655Q0.0599275,23.0451,0.119783,22.4374Q0.179638,21.8297,0.269241,21.2256Q0.358844,20.6216,0.477978,20.0226Q0.597112,19.4237,0.745491,18.8313Q0.89387,18.239,1.07114,17.6546Q1.2484,17.0702,1.45413,16.4953Q1.65985,15.9203,1.89354,15.3561Q2.12723,14.792,2.38833,14.2399Q2.64942,13.6879,2.93728,13.1493Q3.22515,12.6108,3.53909,12.087Q3.85303,11.5632,4.1923,11.0555Q4.53156,10.5477,4.89533,10.0572Q5.25911,9.56674,5.64651,9.09469Q6.03391,8.62265,6.444,8.17017Q6.8541,7.7177,7.2859,7.2859Q7.7177,6.8541,8.17017,6.444Q8.62265,6.03391,9.09469,5.64651Q9.56674,5.25911,10.0572,4.89533Q10.5477,4.53156,11.0555,4.1923Q11.5632,3.85303,12.087,3.53909Q12.6108,3.22515,13.1493,2.93728Q13.6879,2.64942,14.2399,2.38833Q14.792,2.12723,15.3561,1.89354Q15.9203,1.65985,16.4953,1.45413Q17.0702,1.2484,17.6546,1.07114Q18.239,0.89387,18.8313,0.745491Q19.4237,0.597112,20.0226,0.477978Q20.6216,0.358844,21.2256,0.269241Q21.8297,0.179638,22.4374,0.119783Q23.0451,0.0599275,23.655,0.0299638Q24.265,-8.41236e-16,24.8756,-8.41236e-16Q25.4863,-8.41236e-16,26.0962,0.0299638Q26.7061,0.0599275,27.3139,0.119783Q27.9216,0.179638,28.5256,0.269241Q29.1297,0.358844,29.7286,0.477978Q30.3275,0.597112,30.9199,0.745491Q31.5123,0.89387,32.0966,1.07114Q32.681,1.2484,33.256,1.45413Q33.8309,1.65985,34.3951,1.89354Q34.9593,2.12723,35.5113,2.38833Q36.0634,2.64942,36.6019,2.93728Q37.1405,3.22515,37.6642,3.53909Q38.188,3.85303,38.6958,4.1923Q39.2035,4.53156,39.694,4.89533Q40.1845,5.25911,40.6565,5.64651Q41.1286,6.03391,41.5811,6.444Q42.0335,6.8541,42.4653,7.2859Q42.8971,7.7177,43.3072,8.17017Q43.7173,8.62265,44.1047,9.09469Q44.4921,9.56674,44.8559,10.0572Q45.2197,10.5477,45.5589,11.0555Q45.8982,11.5632,46.2122,12.087Q46.5261,12.6108,46.814,13.1493Q47.1018,13.6879,47.3629,14.2399Q47.624,14.792,47.8577,15.3561Q48.0914,15.9203,48.2971,16.4953Q48.5028,17.0702,48.6801,17.6546Q48.8574,18.239,49.0057,18.8313Q49.1541,19.4237,49.2733,20.0226Q49.3924,20.6216,49.482,21.2256Q49.5716,21.8297,49.6315,22.4374Q49.6913,23.0451,49.7213,23.655Q49.7512,24.265,49.7512,24.8756Z" fill="#23A0F0" fill-opacity="1"/></g><g><path d="M36.93606369934082,29.367C36.74606369934082,26.7616,34.999963699340825,24.5779,33.98896369934082,23.4436C34.35376369934082,22.204700000000003,34.03816369934082,20.86816,33.15566369934082,19.914749999999998L33.15566369934082,19.82427C33.15566369934082,14.703240000000001,29.51646369934082,11.0155893,24.952163699340822,11C20.38723369934082,11.0180119,16.74864369934082,14.703240000000001,16.74864369934082,19.82427L16.74864369934082,19.914749999999998C15.86617369934082,20.86817,15.550593699340821,22.204700000000003,15.915403699340821,23.4436C14.90444369934082,24.5713,13.15824969934082,26.7549,12.96834119934082,29.367C12.90003109934082,30.0998,13.03993819934082,30.8369,13.37244469934082,31.496C13.77660269934082,32.0389,14.89775369934082,31.3875,15.69446369934082,29.6564C16.09965369934082,30.9531,16.74335369934082,32.165400000000005,17.59349369934082,33.2332C15.65124369934082,33.6796,15.093713699340821,35.5977,15.74924369934082,36.648700000000005C16.20876369934082,37.3906,17.27091369934082,38,19.08836369934082,38C22.32339369934082,38,23.756763699340823,37.1252,24.39406369934082,36.5223C24.71686369934082,36.2569,25.18626369934082,36.2569,25.50906369934082,36.5223C26.14636369934082,37.131699999999995,27.578463699340823,38,30.81476369934082,38C32.63466369934082,38,33.68826369934082,37.3906,34.15386369934082,36.648700000000005C34.80936369934082,35.5995,34.25186369934082,33.6814,32.30966369934082,33.2332C33.15846369934082,32.1646,33.80206369934082,30.9525,34.20866369934082,29.6564C35.00536369934082,31.3875,36.12646369934082,32.0329,36.53066369934082,31.496C36.86066369934082,30.8361,37.00086369934082,30.0998,36.93606369934082,29.367L36.93606369934082,29.367Z" fill="#FFFFFF" fill-opacity="1"/></g></g></svg>