<svg xmlns="http://www.w3.org/2000/svg" xmlns:xlink="http://www.w3.org/1999/xlink" fill="none" version="1.1" width="16.666664123535156" height="16.6666259765625" viewBox="0 0 16.666664123535156 16.6666259765625"><g style="opacity:0.6000000238418579;"><g><path d="M16.4226,15.2441L13.3599,12.1814C14.3863,10.8983,15,9.27084,15,7.5C15,3.35786,11.6421,0,7.5,0C3.35786,0,0,3.35786,0,7.5C0,11.6421,3.35786,15,7.5,15C9.27084,15,10.8983,14.3863,12.1814,13.3599L15.2441,16.4226C15.5695,16.748,16.0972,16.748,16.4226,16.4226C16.748,16.0972,16.748,15.5695,16.4226,15.2441ZM7.5,13.3333Q7.6432,13.3333,7.78623,13.3263Q7.92926,13.3192,8.07177,13.3052Q8.21428,13.2912,8.35593,13.2702Q8.49758,13.2491,8.63803,13.2212Q8.77848,13.1933,8.91738,13.1585Q9.05629,13.1237,9.19333,13.0821Q9.33036,13.0405,9.46519,12.9923Q9.60002,12.9441,9.73232,12.8893Q9.86462,12.8345,9.99407,12.7732Q10.1235,12.712,10.2498,12.6445Q10.3761,12.577,10.4989,12.5034Q10.6218,12.4298,10.7408,12.3502Q10.8599,12.2706,10.9749,12.1853Q11.0899,12.1,11.2006,12.0092Q11.3113,11.9183,11.4174,11.8222Q11.5235,11.726,11.6248,11.6247Q11.726,11.5235,11.8222,11.4174Q11.9184,11.3113,12.0092,11.2006Q12.1001,11.0899,12.1854,10.9749Q12.2707,10.8598,12.3502,10.7408Q12.4298,10.6217,12.5034,10.4989Q12.577,10.3761,12.6445,10.2498Q12.712,10.1235,12.7733,9.99403Q12.8345,9.86458,12.8893,9.73228Q12.9441,9.59998,12.9923,9.46515Q13.0406,9.33032,13.0822,9.19329Q13.1237,9.05625,13.1585,8.91734Q13.1933,8.77843,13.2212,8.63799Q13.2492,8.49754,13.2702,8.35589Q13.2912,8.21424,13.3052,8.07173Q13.3193,7.92921,13.3263,7.78619Q13.3333,7.64316,13.3333,7.49996Q13.3333,7.35676,13.3263,7.21373Q13.3193,7.0707,13.3052,6.92819Q13.2912,6.78568,13.2702,6.64403Q13.2492,6.50238,13.2212,6.36193Q13.1933,6.22148,13.1585,6.08257Q13.1237,5.94367,13.0822,5.80663Q13.0406,5.6696,12.9923,5.53477Q12.9441,5.39994,12.8893,5.26764Q12.8345,5.13534,12.7733,5.00589Q12.712,4.87644,12.6445,4.75014Q12.577,4.62385,12.5034,4.50103Q12.4298,4.3782,12.3502,4.25913Q12.2707,4.14007,12.1854,4.02505Q12.1001,3.91003,12.0092,3.79933Q11.9184,3.68864,11.8222,3.58253Q11.726,3.47643,11.6248,3.37517Q11.5235,3.27391,11.4174,3.17774Q11.3113,3.08158,11.2006,2.99073Q11.0899,2.89989,10.9749,2.81458Q10.8599,2.72928,10.7408,2.64972Q10.6218,2.57016,10.4989,2.49654Q10.3761,2.42292,10.2498,2.35542Q10.1235,2.28791,9.99407,2.22669Q9.86462,2.16546,9.73232,2.11066Q9.60002,2.05586,9.46519,2.00762Q9.33036,1.95938,9.19333,1.91781Q9.05629,1.87624,8.91738,1.84144Q8.77848,1.80665,8.63803,1.77871Q8.49758,1.75077,8.35593,1.72976Q8.21428,1.70875,8.07177,1.69472Q7.92926,1.68068,7.78623,1.67365Q7.6432,1.66663,7.5,1.66663Q7.3568,1.66663,7.21377,1.67365Q7.07075,1.68068,6.92824,1.69472Q6.78572,1.70875,6.64407,1.72976Q6.50242,1.75077,6.36197,1.77871Q6.22153,1.80665,6.08262,1.84144Q5.94371,1.87624,5.80667,1.91781Q5.66964,1.95938,5.53481,2.00762Q5.39998,2.05586,5.26768,2.11066Q5.13538,2.16546,5.00593,2.22669Q4.87648,2.28791,4.75019,2.35542Q4.62389,2.42292,4.50107,2.49654Q4.37824,2.57016,4.25917,2.64972Q4.14011,2.72928,4.02509,2.81458Q3.91007,2.89989,3.79937,2.99073Q3.68868,3.08158,3.58257,3.17774Q3.47647,3.27391,3.37521,3.37517Q3.27395,3.47643,3.17779,3.58253Q3.08162,3.68864,2.99077,3.79933Q2.89993,3.91003,2.81462,4.02505Q2.72932,4.14007,2.64976,4.25913Q2.5702,4.3782,2.49658,4.50103Q2.42296,4.62385,2.35546,4.75014Q2.28796,4.87644,2.22673,5.00589Q2.1655,5.13534,2.1107,5.26764Q2.0559,5.39994,2.00766,5.53477Q1.95942,5.6696,1.91785,5.80663Q1.87628,5.94367,1.84149,6.08257Q1.80669,6.22148,1.77875,6.36193Q1.75082,6.50238,1.7298,6.64403Q1.70879,6.78568,1.69476,6.92819Q1.68072,7.0707,1.67369,7.21373Q1.66667,7.35676,1.66667,7.49996Q1.66667,7.64316,1.67369,7.78619Q1.68072,7.92921,1.69476,8.07173Q1.70879,8.21424,1.7298,8.35589Q1.75082,8.49754,1.77875,8.63799Q1.80669,8.77843,1.84149,8.91734Q1.87628,9.05625,1.91785,9.19329Q1.95942,9.33032,2.00766,9.46515Q2.0559,9.59998,2.1107,9.73228Q2.1655,9.86458,2.22673,9.99403Q2.28796,10.1235,2.35546,10.2498Q2.42296,10.3761,2.49658,10.4989Q2.5702,10.6217,2.64976,10.7408Q2.72932,10.8599,2.81462,10.9749Q2.89993,11.0899,2.99077,11.2006Q3.08162,11.3113,3.17779,11.4174Q3.27395,11.5235,3.37521,11.6247Q3.47647,11.726,3.58257,11.8222Q3.68868,11.9183,3.79937,12.0092Q3.91007,12.1,4.02509,12.1853Q4.14011,12.2706,4.25917,12.3502Q4.37824,12.4298,4.50107,12.5034Q4.62389,12.577,4.75019,12.6445Q4.87648,12.712,5.00593,12.7732Q5.13538,12.8345,5.26768,12.8893Q5.39998,12.9441,5.53481,12.9923Q5.66964,13.0405,5.80667,13.0821Q5.94371,13.1237,6.08262,13.1585Q6.22153,13.1933,6.36197,13.2212Q6.50242,13.2491,6.64407,13.2702Q6.78572,13.2912,6.92824,13.3052Q7.07075,13.3192,7.21377,13.3263Q7.3568,13.3333,7.5,13.3333Z" fill-rule="evenodd" fill="#999999" fill-opacity="1"/></g></g></svg>